<mxfile host="app.diagrams.net" agent="Mozilla/5.0 (Windows NT 10.0; Win64; x64) AppleWebKit/537.36 (KHTML, like Gecko) Chrome/135.0.0.0 Safari/537.36" version="27.0.6">
  <diagram name="Pagina-1" id="vcQEcPMaA8p_gaCAoy6y">
    <mxGraphModel grid="0" page="0" gridSize="10" guides="1" tooltips="1" connect="1" arrows="1" fold="1" pageScale="1" pageWidth="827" pageHeight="1169" math="0" shadow="0">
      <root>
        <mxCell id="0" />
        <mxCell id="1" parent="0" />
        <mxCell id="XCx9I2rke76Seck7C1TB-35" style="edgeStyle=none;curved=1;rounded=0;orthogonalLoop=1;jettySize=auto;html=1;fontSize=12;startSize=8;endSize=8;" edge="1" parent="1" source="XCx9I2rke76Seck7C1TB-1" target="XCx9I2rke76Seck7C1TB-9">
          <mxGeometry relative="1" as="geometry" />
        </mxCell>
        <mxCell id="XCx9I2rke76Seck7C1TB-1" value="BOOK" style="rounded=0;whiteSpace=wrap;html=1;fillColor=#fff2cc;strokeColor=#d6b656;" vertex="1" parent="1">
          <mxGeometry x="-96" y="-168" width="178" height="60" as="geometry" />
        </mxCell>
        <mxCell id="t6Kcfi7GsbEbE_ioR7w--10" style="edgeStyle=orthogonalEdgeStyle;rounded=0;orthogonalLoop=1;jettySize=auto;html=1;" edge="1" parent="1" source="XCx9I2rke76Seck7C1TB-3" target="XCx9I2rke76Seck7C1TB-1">
          <mxGeometry relative="1" as="geometry" />
        </mxCell>
        <mxCell id="XCx9I2rke76Seck7C1TB-3" value="ISBN" style="ellipse;whiteSpace=wrap;html=1;" vertex="1" parent="1">
          <mxGeometry x="-98" y="-318" width="120" height="80" as="geometry" />
        </mxCell>
        <mxCell id="t6Kcfi7GsbEbE_ioR7w--9" style="edgeStyle=orthogonalEdgeStyle;rounded=0;orthogonalLoop=1;jettySize=auto;html=1;entryX=0;entryY=0.5;entryDx=0;entryDy=0;" edge="1" parent="1" source="XCx9I2rke76Seck7C1TB-5" target="XCx9I2rke76Seck7C1TB-1">
          <mxGeometry relative="1" as="geometry" />
        </mxCell>
        <mxCell id="XCx9I2rke76Seck7C1TB-5" value="title" style="ellipse;whiteSpace=wrap;html=1;" vertex="1" parent="1">
          <mxGeometry x="-266" y="-318" width="120" height="80" as="geometry" />
        </mxCell>
        <mxCell id="XCx9I2rke76Seck7C1TB-6" value="year_pubblication" style="ellipse;whiteSpace=wrap;html=1;" vertex="1" parent="1">
          <mxGeometry x="55" y="-318" width="120" height="80" as="geometry" />
        </mxCell>
        <mxCell id="XCx9I2rke76Seck7C1TB-9" value="WRITE" style="rhombus;whiteSpace=wrap;html=1;fillColor=#ffe6cc;strokeColor=#d79b00;" vertex="1" parent="1">
          <mxGeometry x="232" y="-216.5" width="157" height="157" as="geometry" />
        </mxCell>
        <mxCell id="XCx9I2rke76Seck7C1TB-36" style="edgeStyle=none;curved=1;rounded=0;orthogonalLoop=1;jettySize=auto;html=1;fontSize=12;startSize=8;endSize=8;" edge="1" parent="1" source="XCx9I2rke76Seck7C1TB-10" target="XCx9I2rke76Seck7C1TB-9">
          <mxGeometry relative="1" as="geometry" />
        </mxCell>
        <mxCell id="XCx9I2rke76Seck7C1TB-10" value="AUTHOR" style="rounded=0;whiteSpace=wrap;html=1;fillColor=#f8cecc;strokeColor=#b85450;" vertex="1" parent="1">
          <mxGeometry x="555" y="-175" width="178" height="60" as="geometry" />
        </mxCell>
        <mxCell id="XCx9I2rke76Seck7C1TB-11" value="&lt;u&gt;name&lt;/u&gt;" style="ellipse;whiteSpace=wrap;html=1;" vertex="1" parent="1">
          <mxGeometry x="551" y="-300" width="120" height="80" as="geometry" />
        </mxCell>
        <mxCell id="XCx9I2rke76Seck7C1TB-12" value="&lt;u&gt;birth_date&lt;/u&gt;" style="ellipse;whiteSpace=wrap;html=1;" vertex="1" parent="1">
          <mxGeometry x="711" y="-284" width="120" height="80" as="geometry" />
        </mxCell>
        <mxCell id="t6Kcfi7GsbEbE_ioR7w--18" style="edgeStyle=orthogonalEdgeStyle;rounded=0;orthogonalLoop=1;jettySize=auto;html=1;" edge="1" parent="1" source="XCx9I2rke76Seck7C1TB-13" target="XCx9I2rke76Seck7C1TB-10">
          <mxGeometry relative="1" as="geometry" />
        </mxCell>
        <mxCell id="XCx9I2rke76Seck7C1TB-13" value="&lt;u&gt;birth_place&lt;/u&gt;" style="ellipse;whiteSpace=wrap;html=1;" vertex="1" parent="1">
          <mxGeometry x="785" y="-178" width="120" height="80" as="geometry" />
        </mxCell>
        <mxCell id="t6Kcfi7GsbEbE_ioR7w--8" style="edgeStyle=orthogonalEdgeStyle;rounded=0;orthogonalLoop=1;jettySize=auto;html=1;" edge="1" parent="1" source="XCx9I2rke76Seck7C1TB-14" target="XCx9I2rke76Seck7C1TB-1">
          <mxGeometry relative="1" as="geometry" />
        </mxCell>
        <mxCell id="XCx9I2rke76Seck7C1TB-14" value="language" style="ellipse;whiteSpace=wrap;html=1;" vertex="1" parent="1">
          <mxGeometry x="-338" y="-243" width="120" height="80" as="geometry" />
        </mxCell>
        <mxCell id="XCx9I2rke76Seck7C1TB-57" style="edgeStyle=none;curved=1;rounded=0;orthogonalLoop=1;jettySize=auto;html=1;fontSize=12;startSize=8;endSize=8;" edge="1" parent="1" source="XCx9I2rke76Seck7C1TB-16" target="XCx9I2rke76Seck7C1TB-53">
          <mxGeometry relative="1" as="geometry" />
        </mxCell>
        <mxCell id="XCx9I2rke76Seck7C1TB-16" value="DEPARTMENT" style="rounded=0;whiteSpace=wrap;html=1;fillColor=#dae8fc;strokeColor=#6c8ebf;" vertex="1" parent="1">
          <mxGeometry x="-398" y="283" width="120" height="60" as="geometry" />
        </mxCell>
        <mxCell id="t6Kcfi7GsbEbE_ioR7w--5" style="edgeStyle=orthogonalEdgeStyle;rounded=0;orthogonalLoop=1;jettySize=auto;html=1;entryX=0.25;entryY=1;entryDx=0;entryDy=0;" edge="1" parent="1" source="XCx9I2rke76Seck7C1TB-17" target="XCx9I2rke76Seck7C1TB-16">
          <mxGeometry relative="1" as="geometry" />
        </mxCell>
        <mxCell id="XCx9I2rke76Seck7C1TB-17" value="&lt;u&gt;name&lt;/u&gt;" style="ellipse;whiteSpace=wrap;html=1;" vertex="1" parent="1">
          <mxGeometry x="-554" y="340" width="120" height="80" as="geometry" />
        </mxCell>
        <mxCell id="XCx9I2rke76Seck7C1TB-18" value="address" style="ellipse;whiteSpace=wrap;html=1;" vertex="1" parent="1">
          <mxGeometry x="-380" y="390" width="120" height="80" as="geometry" />
        </mxCell>
        <mxCell id="XCx9I2rke76Seck7C1TB-26" style="edgeStyle=none;curved=1;rounded=0;orthogonalLoop=1;jettySize=auto;html=1;fontSize=12;startSize=8;endSize=8;" edge="1" parent="1" source="XCx9I2rke76Seck7C1TB-19" target="XCx9I2rke76Seck7C1TB-22">
          <mxGeometry relative="1" as="geometry" />
        </mxCell>
        <mxCell id="XCx9I2rke76Seck7C1TB-33" style="edgeStyle=none;curved=1;rounded=0;orthogonalLoop=1;jettySize=auto;html=1;fontSize=12;startSize=8;endSize=8;" edge="1" parent="1" source="XCx9I2rke76Seck7C1TB-19" target="XCx9I2rke76Seck7C1TB-27">
          <mxGeometry relative="1" as="geometry" />
        </mxCell>
        <mxCell id="XCx9I2rke76Seck7C1TB-19" value="USER" style="rounded=0;whiteSpace=wrap;html=1;fillColor=#d5e8d4;strokeColor=#82b366;" vertex="1" parent="1">
          <mxGeometry x="665" y="90" width="120" height="60" as="geometry" />
        </mxCell>
        <mxCell id="t6Kcfi7GsbEbE_ioR7w--19" style="edgeStyle=orthogonalEdgeStyle;rounded=0;orthogonalLoop=1;jettySize=auto;html=1;" edge="1" parent="1" source="XCx9I2rke76Seck7C1TB-20" target="XCx9I2rke76Seck7C1TB-19">
          <mxGeometry relative="1" as="geometry" />
        </mxCell>
        <mxCell id="XCx9I2rke76Seck7C1TB-20" value="name" style="ellipse;whiteSpace=wrap;html=1;" vertex="1" parent="1">
          <mxGeometry x="619" y="-21" width="120" height="80" as="geometry" />
        </mxCell>
        <mxCell id="XCx9I2rke76Seck7C1TB-21" value="surname" style="ellipse;whiteSpace=wrap;html=1;" vertex="1" parent="1">
          <mxGeometry x="768" y="-23" width="120" height="80" as="geometry" />
        </mxCell>
        <mxCell id="XCx9I2rke76Seck7C1TB-22" value="address" style="ellipse;whiteSpace=wrap;html=1;" vertex="1" parent="1">
          <mxGeometry x="980" y="21" width="120" height="80" as="geometry" />
        </mxCell>
        <mxCell id="t6Kcfi7GsbEbE_ioR7w--21" style="edgeStyle=orthogonalEdgeStyle;rounded=0;orthogonalLoop=1;jettySize=auto;html=1;" edge="1" parent="1" source="XCx9I2rke76Seck7C1TB-23" target="XCx9I2rke76Seck7C1TB-19">
          <mxGeometry relative="1" as="geometry" />
        </mxCell>
        <mxCell id="XCx9I2rke76Seck7C1TB-23" value="phone" style="ellipse;whiteSpace=wrap;html=1;" vertex="1" parent="1">
          <mxGeometry x="862" y="162" width="120" height="80" as="geometry" />
        </mxCell>
        <mxCell id="t6Kcfi7GsbEbE_ioR7w--22" style="edgeStyle=orthogonalEdgeStyle;rounded=0;orthogonalLoop=1;jettySize=auto;html=1;entryX=0.25;entryY=1;entryDx=0;entryDy=0;" edge="1" parent="1" source="XCx9I2rke76Seck7C1TB-24" target="XCx9I2rke76Seck7C1TB-19">
          <mxGeometry relative="1" as="geometry" />
        </mxCell>
        <mxCell id="XCx9I2rke76Seck7C1TB-24" value="&lt;u&gt;serial_number&lt;/u&gt;" style="ellipse;whiteSpace=wrap;html=1;" vertex="1" parent="1">
          <mxGeometry x="637" y="227" width="120" height="80" as="geometry" />
        </mxCell>
        <mxCell id="XCx9I2rke76Seck7C1TB-27" value="JOAN" style="rhombus;whiteSpace=wrap;html=1;fillColor=#e1d5e7;strokeColor=#9673a6;" vertex="1" parent="1">
          <mxGeometry x="223" y="59" width="171" height="173" as="geometry" />
        </mxCell>
        <mxCell id="t6Kcfi7GsbEbE_ioR7w--14" style="edgeStyle=orthogonalEdgeStyle;rounded=0;orthogonalLoop=1;jettySize=auto;html=1;entryX=0.5;entryY=1;entryDx=0;entryDy=0;" edge="1" parent="1" source="XCx9I2rke76Seck7C1TB-30" target="XCx9I2rke76Seck7C1TB-27">
          <mxGeometry relative="1" as="geometry" />
        </mxCell>
        <mxCell id="XCx9I2rke76Seck7C1TB-30" value="exit_date" style="ellipse;whiteSpace=wrap;html=1;" vertex="1" parent="1">
          <mxGeometry x="319" y="269" width="120" height="80" as="geometry" />
        </mxCell>
        <mxCell id="t6Kcfi7GsbEbE_ioR7w--15" style="edgeStyle=orthogonalEdgeStyle;rounded=0;orthogonalLoop=1;jettySize=auto;html=1;entryX=0.5;entryY=1;entryDx=0;entryDy=0;" edge="1" parent="1" source="XCx9I2rke76Seck7C1TB-31" target="XCx9I2rke76Seck7C1TB-27">
          <mxGeometry relative="1" as="geometry" />
        </mxCell>
        <mxCell id="XCx9I2rke76Seck7C1TB-31" value="expired_date" style="ellipse;whiteSpace=wrap;html=1;dashed=1;dashPattern=8 8;" vertex="1" parent="1">
          <mxGeometry x="146" y="278" width="120" height="80" as="geometry" />
        </mxCell>
        <mxCell id="XCx9I2rke76Seck7C1TB-37" value="(1, N)" style="text;html=1;align=center;verticalAlign=middle;resizable=0;points=[];autosize=1;strokeColor=none;fillColor=none;fontSize=16;" vertex="1" parent="1">
          <mxGeometry x="76.5" y="-170.5" width="58" height="31" as="geometry" />
        </mxCell>
        <mxCell id="XCx9I2rke76Seck7C1TB-38" value="(1, N)" style="text;html=1;align=center;verticalAlign=middle;resizable=0;points=[];autosize=1;strokeColor=none;fillColor=none;fontSize=16;" vertex="1" parent="1">
          <mxGeometry x="496.5" y="-176.5" width="58" height="31" as="geometry" />
        </mxCell>
        <mxCell id="XCx9I2rke76Seck7C1TB-39" value="(N, M)" style="text;html=1;align=center;verticalAlign=middle;resizable=0;points=[];autosize=1;strokeColor=none;fillColor=none;fontSize=16;" vertex="1" parent="1">
          <mxGeometry x="277.5" y="-249.5" width="62" height="31" as="geometry" />
        </mxCell>
        <mxCell id="t6Kcfi7GsbEbE_ioR7w--1" style="edgeStyle=orthogonalEdgeStyle;rounded=0;orthogonalLoop=1;jettySize=auto;html=1;" edge="1" parent="1" source="XCx9I2rke76Seck7C1TB-40" target="XCx9I2rke76Seck7C1TB-18">
          <mxGeometry relative="1" as="geometry" />
        </mxCell>
        <mxCell id="XCx9I2rke76Seck7C1TB-40" value="street" style="ellipse;whiteSpace=wrap;html=1;" vertex="1" parent="1">
          <mxGeometry x="-529" y="509" width="120" height="80" as="geometry" />
        </mxCell>
        <mxCell id="t6Kcfi7GsbEbE_ioR7w--3" style="edgeStyle=orthogonalEdgeStyle;rounded=0;orthogonalLoop=1;jettySize=auto;html=1;" edge="1" parent="1" source="XCx9I2rke76Seck7C1TB-41" target="XCx9I2rke76Seck7C1TB-18">
          <mxGeometry relative="1" as="geometry">
            <Array as="points">
              <mxPoint x="-209" y="550" />
              <mxPoint x="-320" y="550" />
            </Array>
          </mxGeometry>
        </mxCell>
        <mxCell id="XCx9I2rke76Seck7C1TB-41" value="postal_number" style="ellipse;whiteSpace=wrap;html=1;" vertex="1" parent="1">
          <mxGeometry x="-269" y="575" width="120" height="80" as="geometry" />
        </mxCell>
        <mxCell id="t6Kcfi7GsbEbE_ioR7w--2" style="edgeStyle=orthogonalEdgeStyle;rounded=0;orthogonalLoop=1;jettySize=auto;html=1;" edge="1" parent="1" source="XCx9I2rke76Seck7C1TB-42" target="XCx9I2rke76Seck7C1TB-18">
          <mxGeometry relative="1" as="geometry">
            <Array as="points">
              <mxPoint x="-320" y="547" />
              <mxPoint x="-320" y="547" />
            </Array>
          </mxGeometry>
        </mxCell>
        <mxCell id="XCx9I2rke76Seck7C1TB-42" value="address_number" style="ellipse;whiteSpace=wrap;html=1;" vertex="1" parent="1">
          <mxGeometry x="-415" y="560" width="120" height="80" as="geometry" />
        </mxCell>
        <mxCell id="t6Kcfi7GsbEbE_ioR7w--4" style="edgeStyle=orthogonalEdgeStyle;rounded=0;orthogonalLoop=1;jettySize=auto;html=1;entryX=0.5;entryY=1;entryDx=0;entryDy=0;" edge="1" parent="1" source="XCx9I2rke76Seck7C1TB-43" target="XCx9I2rke76Seck7C1TB-18">
          <mxGeometry relative="1" as="geometry" />
        </mxCell>
        <mxCell id="XCx9I2rke76Seck7C1TB-43" value="city" style="ellipse;whiteSpace=wrap;html=1;" vertex="1" parent="1">
          <mxGeometry x="-115" y="509" width="120" height="80" as="geometry" />
        </mxCell>
        <mxCell id="t6Kcfi7GsbEbE_ioR7w--23" style="edgeStyle=orthogonalEdgeStyle;rounded=0;orthogonalLoop=1;jettySize=auto;html=1;" edge="1" parent="1" source="XCx9I2rke76Seck7C1TB-48" target="XCx9I2rke76Seck7C1TB-22">
          <mxGeometry relative="1" as="geometry" />
        </mxCell>
        <mxCell id="XCx9I2rke76Seck7C1TB-48" value="street" style="ellipse;whiteSpace=wrap;html=1;" vertex="1" parent="1">
          <mxGeometry x="938" y="-93" width="120" height="80" as="geometry" />
        </mxCell>
        <mxCell id="t6Kcfi7GsbEbE_ioR7w--25" style="edgeStyle=orthogonalEdgeStyle;rounded=0;orthogonalLoop=1;jettySize=auto;html=1;" edge="1" parent="1" source="XCx9I2rke76Seck7C1TB-49" target="XCx9I2rke76Seck7C1TB-22">
          <mxGeometry relative="1" as="geometry" />
        </mxCell>
        <mxCell id="XCx9I2rke76Seck7C1TB-49" value="postal_number" style="ellipse;whiteSpace=wrap;html=1;" vertex="1" parent="1">
          <mxGeometry x="1193" y="-19" width="120" height="80" as="geometry" />
        </mxCell>
        <mxCell id="t6Kcfi7GsbEbE_ioR7w--24" style="edgeStyle=orthogonalEdgeStyle;rounded=0;orthogonalLoop=1;jettySize=auto;html=1;entryX=1;entryY=0;entryDx=0;entryDy=0;" edge="1" parent="1" source="XCx9I2rke76Seck7C1TB-50" target="XCx9I2rke76Seck7C1TB-22">
          <mxGeometry relative="1" as="geometry" />
        </mxCell>
        <mxCell id="XCx9I2rke76Seck7C1TB-50" value="address_number" style="ellipse;whiteSpace=wrap;html=1;" vertex="1" parent="1">
          <mxGeometry x="1069" y="-85" width="120" height="80" as="geometry" />
        </mxCell>
        <mxCell id="XCx9I2rke76Seck7C1TB-51" value="city" style="ellipse;whiteSpace=wrap;html=1;" vertex="1" parent="1">
          <mxGeometry x="1128" y="84" width="120" height="80" as="geometry" />
        </mxCell>
        <mxCell id="XCx9I2rke76Seck7C1TB-53" value="STOCK" style="rhombus;whiteSpace=wrap;html=1;fillColor=#d5e8d4;strokeColor=#82b366;" vertex="1" parent="1">
          <mxGeometry x="-453" y="35" width="168" height="132" as="geometry" />
        </mxCell>
        <mxCell id="t6Kcfi7GsbEbE_ioR7w--12" style="edgeStyle=orthogonalEdgeStyle;rounded=0;orthogonalLoop=1;jettySize=auto;html=1;" edge="1" parent="1" source="XCx9I2rke76Seck7C1TB-54" target="XCx9I2rke76Seck7C1TB-64">
          <mxGeometry relative="1" as="geometry" />
        </mxCell>
        <mxCell id="XCx9I2rke76Seck7C1TB-54" value="&lt;u&gt;code&lt;/u&gt;" style="ellipse;whiteSpace=wrap;html=1;" vertex="1" parent="1">
          <mxGeometry x="-155" y="6" width="119" height="46" as="geometry" />
        </mxCell>
        <mxCell id="XCx9I2rke76Seck7C1TB-55" style="edgeStyle=none;curved=1;rounded=0;orthogonalLoop=1;jettySize=auto;html=1;entryX=0.487;entryY=0.035;entryDx=0;entryDy=0;entryPerimeter=0;fontSize=12;startSize=8;endSize=8;" edge="1" parent="1" source="XCx9I2rke76Seck7C1TB-1" target="XCx9I2rke76Seck7C1TB-53">
          <mxGeometry relative="1" as="geometry" />
        </mxCell>
        <mxCell id="XCx9I2rke76Seck7C1TB-56" value="(1, N)" style="text;html=1;align=center;verticalAlign=middle;resizable=0;points=[];autosize=1;strokeColor=none;fillColor=none;fontSize=16;" vertex="1" parent="1">
          <mxGeometry x="-118" y="-105" width="58" height="31" as="geometry" />
        </mxCell>
        <mxCell id="XCx9I2rke76Seck7C1TB-58" value="(1, 1)" style="text;html=1;align=center;verticalAlign=middle;resizable=0;points=[];autosize=1;strokeColor=none;fillColor=none;fontSize=16;" vertex="1" parent="1">
          <mxGeometry x="-321" y="235" width="55" height="31" as="geometry" />
        </mxCell>
        <mxCell id="XCx9I2rke76Seck7C1TB-59" value="(1, N)" style="text;html=1;align=center;verticalAlign=middle;resizable=0;points=[];autosize=1;strokeColor=none;fillColor=none;fontSize=16;" vertex="1" parent="1">
          <mxGeometry x="-396" y="57" width="58" height="31" as="geometry" />
        </mxCell>
        <mxCell id="XCx9I2rke76Seck7C1TB-65" style="edgeStyle=none;curved=1;rounded=0;orthogonalLoop=1;jettySize=auto;html=1;fontSize=12;startSize=8;endSize=8;" edge="1" parent="1" source="XCx9I2rke76Seck7C1TB-64" target="XCx9I2rke76Seck7C1TB-53">
          <mxGeometry relative="1" as="geometry" />
        </mxCell>
        <mxCell id="XCx9I2rke76Seck7C1TB-66" style="edgeStyle=none;curved=1;rounded=0;orthogonalLoop=1;jettySize=auto;html=1;fontSize=12;startSize=8;endSize=8;" edge="1" parent="1" source="XCx9I2rke76Seck7C1TB-64" target="XCx9I2rke76Seck7C1TB-27">
          <mxGeometry relative="1" as="geometry" />
        </mxCell>
        <mxCell id="XCx9I2rke76Seck7C1TB-64" value="COPY" style="rounded=0;whiteSpace=wrap;html=1;fillColor=#bac8d3;strokeColor=#23445d;" vertex="1" parent="1">
          <mxGeometry x="-155" y="68" width="120" height="60" as="geometry" />
        </mxCell>
        <mxCell id="XCx9I2rke76Seck7C1TB-67" value="(1, 1)" style="text;html=1;align=center;verticalAlign=middle;resizable=0;points=[];autosize=1;strokeColor=none;fillColor=none;fontSize=16;" vertex="1" parent="1">
          <mxGeometry x="-212" y="59" width="55" height="31" as="geometry" />
        </mxCell>
        <mxCell id="XCx9I2rke76Seck7C1TB-68" value="(0, N)" style="text;html=1;align=center;verticalAlign=middle;resizable=0;points=[];autosize=1;strokeColor=none;fillColor=none;fontSize=16;" vertex="1" parent="1">
          <mxGeometry x="-37.5" y="76.5" width="58" height="31" as="geometry" />
        </mxCell>
        <mxCell id="XCx9I2rke76Seck7C1TB-70" value="(1, N)" style="text;html=1;align=center;verticalAlign=middle;resizable=0;points=[];autosize=1;strokeColor=none;fillColor=none;fontSize=16;" vertex="1" parent="1">
          <mxGeometry x="591.5" y="89.5" width="58" height="31" as="geometry" />
        </mxCell>
        <mxCell id="XCx9I2rke76Seck7C1TB-71" value="(N, M)" style="text;html=1;align=center;verticalAlign=middle;resizable=0;points=[];autosize=1;strokeColor=none;fillColor=none;fontSize=16;" vertex="1" parent="1">
          <mxGeometry x="274" y="17" width="62" height="31" as="geometry" />
        </mxCell>
        <mxCell id="t6Kcfi7GsbEbE_ioR7w--6" style="edgeStyle=orthogonalEdgeStyle;rounded=0;orthogonalLoop=1;jettySize=auto;html=1;" edge="1" parent="1" source="XCx9I2rke76Seck7C1TB-18">
          <mxGeometry relative="1" as="geometry">
            <mxPoint x="-320" y="341" as="targetPoint" />
          </mxGeometry>
        </mxCell>
        <mxCell id="t6Kcfi7GsbEbE_ioR7w--11" style="edgeStyle=orthogonalEdgeStyle;rounded=0;orthogonalLoop=1;jettySize=auto;html=1;entryX=0.715;entryY=0.043;entryDx=0;entryDy=0;entryPerimeter=0;" edge="1" parent="1" source="XCx9I2rke76Seck7C1TB-6" target="XCx9I2rke76Seck7C1TB-1">
          <mxGeometry relative="1" as="geometry" />
        </mxCell>
        <mxCell id="t6Kcfi7GsbEbE_ioR7w--16" style="edgeStyle=orthogonalEdgeStyle;rounded=0;orthogonalLoop=1;jettySize=auto;html=1;entryX=0.321;entryY=0.013;entryDx=0;entryDy=0;entryPerimeter=0;" edge="1" parent="1" source="XCx9I2rke76Seck7C1TB-11" target="XCx9I2rke76Seck7C1TB-10">
          <mxGeometry relative="1" as="geometry" />
        </mxCell>
        <mxCell id="t6Kcfi7GsbEbE_ioR7w--17" style="edgeStyle=orthogonalEdgeStyle;rounded=0;orthogonalLoop=1;jettySize=auto;html=1;entryX=0.995;entryY=0.203;entryDx=0;entryDy=0;entryPerimeter=0;" edge="1" parent="1" source="XCx9I2rke76Seck7C1TB-12" target="XCx9I2rke76Seck7C1TB-10">
          <mxGeometry relative="1" as="geometry" />
        </mxCell>
        <mxCell id="t6Kcfi7GsbEbE_ioR7w--20" style="edgeStyle=orthogonalEdgeStyle;rounded=0;orthogonalLoop=1;jettySize=auto;html=1;entryX=0.95;entryY=0.067;entryDx=0;entryDy=0;entryPerimeter=0;" edge="1" parent="1" source="XCx9I2rke76Seck7C1TB-21" target="XCx9I2rke76Seck7C1TB-19">
          <mxGeometry relative="1" as="geometry" />
        </mxCell>
        <mxCell id="t6Kcfi7GsbEbE_ioR7w--26" style="edgeStyle=orthogonalEdgeStyle;rounded=0;orthogonalLoop=1;jettySize=auto;html=1;entryX=0.758;entryY=0.903;entryDx=0;entryDy=0;entryPerimeter=0;" edge="1" parent="1" source="XCx9I2rke76Seck7C1TB-51" target="XCx9I2rke76Seck7C1TB-22">
          <mxGeometry relative="1" as="geometry" />
        </mxCell>
      </root>
    </mxGraphModel>
  </diagram>
</mxfile>
